<svg version="1.1" viewBox="0 0 498.55 218.57" xmlns="http://www.w3.org/2000/svg">
 <g fill="#fff">
  <path class="cls-2" transform="translate(-171.43,-188.62)" d="m250.62 406.73h-27l-52.19-117.29h41.57l24.72 58.1 75.56-158.92h41.62z"/>
  <path class="cls-4" transform="translate(-171.43,-188.62)" d="m501.86 407.09h-37.08l0.48-100.28-30.94-0.05v-35.29h98.83v35.29l-30.81 0.05z"/>
  <path class="cls-6" transform="translate(-171.43,-188.62)" d="m368 407c-12.314 0.15403-24.468-2.7968-35.34-8.58-10.443-5.6018-19.177-13.922-25.28-24.08-6.23-10.28-9.38-22.18-9.38-35.34s3.16-25.21 9.37-35.43c6.1209-10.12 14.848-18.409 25.27-24 22.175-11.44 48.515-11.44 70.69 0 10.422 5.5914 19.149 13.88 25.27 24 6.22 10.19 9.4 22.11 9.4 35.43s-3.14 25.09-9.35 35.35c-6.1062 10.159-14.844 18.479-25.29 24.08-10.878 5.7854-23.04 8.7331-35.36 8.57zm0-99.65c-5.7062-0.1209-11.344 1.2584-16.35 4-4.7015 2.5961-8.6078 6.4229-11.3 11.07-5.5326 10.304-5.5326 22.696 0 33 2.6776 4.6592 6.5783 8.4977 11.28 11.1 5.0038 2.7469 10.643 4.1266 16.35 4 5.7362 0.10608 11.4-1.2901 16.43-4.05 4.6994-2.5569 8.5999-6.364 11.27-11 5.4865-10.369 5.4865-22.781 0-33.15-2.6646-4.6333-6.558-8.4401-11.25-11-5.0372-2.7342-10.7-4.1094-16.43-3.99z"/>
  <path class="cls-8" transform="translate(-171.43,-188.62)" d="m600 407.19c-12.314 0.15403-24.468-2.7968-35.34-8.58-10.44-5.6007-19.174-13.917-25.28-24.07-6.21-10.27-9.36-22.16-9.36-35.36s3.15-25.2 9.37-35.43c6.1209-10.12 14.848-18.409 25.27-24 22.175-11.44 48.515-11.44 70.69 0 10.425 5.5866 19.154 13.877 25.27 24 6.21 10.25 9.38 22.14 9.38 35.43s-3.14 25.09-9.35 35.36c-6.1056 10.153-14.84 18.469-25.28 24.07-10.881 5.7877-23.046 8.7387-35.37 8.58zm0-99.64c-5.7062-0.12137-11.344 1.258-16.35 4-4.6987 2.5964-8.6017 6.4233-11.29 11.07-5.5542 10.317-5.5542 22.733 0 33.05 2.6778 4.6565 6.5787 8.4916 11.28 11.09 5.0042 2.746 10.643 4.1256 16.35 4 5.7317 0.12185 11.396-1.2571 16.43-4 4.6957-2.5584 8.5926-6.3653 11.26-11 5.4795-10.367 5.4795-22.773 0-33.14-2.6671-4.6314-6.5598-8.4376-11.25-11-5.0297-2.762-10.693-4.1649-16.43-4.07z"/>
 </g>
</svg>
